<svg width="126" height="32" viewBox="0 0 126 32" fill="none" xmlns="http://www.w3.org/2000/svg">
<g clip-path="url(#clip0)">
<path d="M11.1428 12.5714C12.2473 12.5714 13.1428 13.4668 13.1428 14.5714C13.1428 15.676 12.2473 16.5714 11.1428 16.5714C10.0382 16.5714 9.14275 15.676 9.14275 14.5714C9.14275 13.4668 10.0382 12.5714 11.1428 12.5714ZM18.0925 19.4362C18.5617 19.014 19.2843 19.052 19.7065 19.5212C20.1288 19.9903 20.0907 20.7129 19.6216 21.1352C17.6285 22.9289 15.4207 22.9289 13.4463 21.8627C12.9617 21.601 12.5997 21.3345 12.3782 21.1352C11.9091 20.7129 11.871 19.9903 12.2933 19.5212C12.683 19.0881 13.3287 19.0224 13.7948 19.3469L13.9073 19.4362C14.0033 19.5226 14.2233 19.6847 14.5323 19.8515C15.7326 20.4996 16.9109 20.4996 18.0925 19.4362ZM15.9999 2.28571C19.3546 2.28571 22.1221 3.43726 24.6802 5.81289C27.1665 8.12169 28.5713 11.2802 28.5713 14.5852L28.5499 24.4152C28.3761 26.7715 26.6886 28.5047 24.3848 28.5047C23.5074 28.5047 22.9014 28.307 22.0828 27.8753C21.9223 27.79 21.8499 27.7517 21.7846 27.7182L21.6322 27.6434C21.3487 27.5118 21.1815 27.4861 20.9365 27.5274C20.7687 27.5556 20.5899 27.6496 20.3022 27.872C20.1914 27.9577 19.7581 28.3141 19.6942 28.3653L19.4696 28.5397C18.426 29.3254 17.43 29.7143 15.9999 29.7143C14.4717 29.7143 13.4233 29.2656 12.2935 28.3692L11.6114 27.8204C11.3613 27.632 11.202 27.5507 11.0633 27.5274C10.7774 27.4793 10.5976 27.5222 10.2152 27.7182L9.65132 28.0106C8.96038 28.3485 8.39494 28.5047 7.61499 28.5047C5.3168 28.5047 3.56127 26.7775 3.44683 24.3333L3.42847 14.5831C3.42847 11.2802 4.83333 8.12169 7.31955 5.81289C9.81825 3.4925 12.6863 2.28571 15.9999 2.28571ZM15.9999 4.57142C13.2841 4.57142 10.9643 5.54751 8.87493 7.48779C6.85006 9.36816 5.71418 11.922 5.71418 14.5809L5.73127 24.2771C5.78749 25.4657 6.55304 26.2189 7.61499 26.2189C8.05086 26.2189 8.33128 26.1275 8.85069 25.8536L9.17233 25.6843C9.95354 25.2837 10.5949 25.1308 11.4424 25.2733C12.0046 25.3678 12.4696 25.6052 12.9866 25.9946C13.1557 26.122 13.6915 26.5606 13.7142 26.5787L13.917 26.7341C14.5811 27.2235 15.1386 27.4286 15.9999 27.4286C16.9469 27.4286 17.5102 27.1854 18.2662 26.5805C18.3059 26.5487 18.7606 26.1747 18.9043 26.0636L19.1108 25.9099C19.5867 25.57 20.0263 25.3626 20.5574 25.2733C21.4049 25.1308 22.0462 25.2837 22.8275 25.6843L23.3334 25.9479C23.741 26.1489 24.0034 26.2189 24.3848 26.2189C25.4387 26.2189 26.1812 25.4563 26.2672 24.329L26.2856 14.5831C26.2856 11.922 25.1497 9.36816 23.1249 7.48779C20.9781 5.49421 18.7604 4.57142 15.9999 4.57142ZM19.3087 13.575C20.4894 12.9398 21.8508 12.9398 23.0501 14.0151C23.5193 14.4358 23.5573 15.1557 23.1351 15.6231C22.7128 16.0905 21.9902 16.1283 21.5211 15.7077L21.4063 15.6137C21.066 15.3621 20.7607 15.3817 20.3948 15.5786C20.2842 15.6381 20.2097 15.6928 20.193 15.7077L20.0805 15.7966C19.6144 16.12 18.9687 16.0545 18.579 15.6231C18.1567 15.1557 18.1948 14.4358 18.6639 14.0151C18.806 13.8877 19.0225 13.7289 19.3087 13.575Z" fill="#3F8AE0"/>
<path d="M44.2 23C44.0667 23 43.9533 22.96 43.86 22.88C43.78 22.7867 43.74 22.6733 43.74 22.54V9.47999C43.74 9.33332 43.78 9.21999 43.86 9.13999C43.9533 9.04665 44.0667 8.99999 44.2 8.99999H49.08C50.6133 8.99999 51.8133 9.35999 52.68 10.08C53.5467 10.8 53.98 11.84 53.98 13.2C53.98 14.2133 53.7267 15.0467 53.22 15.7C52.7267 16.3533 52.0267 16.8067 51.12 17.06L54.2 22.38C54.24 22.46 54.26 22.5333 54.26 22.6C54.26 22.7067 54.2133 22.8 54.12 22.88C54.04 22.96 53.9467 23 53.84 23H52.88C52.68 23 52.52 22.9533 52.4 22.86C52.2933 22.7667 52.1933 22.6333 52.1 22.46L49.2 17.38H45.7V22.54C45.7 22.6733 45.6533 22.7867 45.56 22.88C45.4667 22.96 45.3533 23 45.22 23H44.2ZM49 15.68C50.9867 15.68 51.98 14.8467 51.98 13.18C51.98 11.5133 50.9867 10.68 49 10.68H45.7V15.68H49Z" fill="#2C2D2E"/>
<path d="M61.0083 23.2C59.6349 23.2 58.5349 22.78 57.7083 21.94C56.8949 21.0867 56.4483 19.9267 56.3683 18.46L56.3483 17.78L56.3683 17.12C56.4616 15.68 56.9149 14.5333 57.7283 13.68C58.5549 12.8267 59.6416 12.4 60.9883 12.4C62.4683 12.4 63.6149 12.8733 64.4283 13.82C65.2416 14.7533 65.6483 16.02 65.6483 17.62V17.96C65.6483 18.0933 65.6016 18.2067 65.5083 18.3C65.4283 18.38 65.3216 18.42 65.1883 18.42H58.2683V18.6C58.3083 19.4667 58.5683 20.2067 59.0483 20.82C59.5416 21.42 60.1883 21.72 60.9883 21.72C61.6016 21.72 62.1016 21.6 62.4883 21.36C62.8883 21.1067 63.1816 20.8467 63.3683 20.58C63.4883 20.42 63.5749 20.3267 63.6283 20.3C63.6949 20.26 63.8083 20.24 63.9683 20.24H64.9483C65.0683 20.24 65.1683 20.2733 65.2483 20.34C65.3283 20.4067 65.3683 20.5 65.3683 20.62C65.3683 20.9133 65.1816 21.2667 64.8083 21.68C64.4483 22.0933 63.9349 22.4533 63.2683 22.76C62.6149 23.0533 61.8616 23.2 61.0083 23.2ZM63.7483 17.04V16.98C63.7483 16.06 63.4949 15.3133 62.9883 14.74C62.4949 14.1533 61.8283 13.86 60.9883 13.86C60.1483 13.86 59.4816 14.1533 58.9883 14.74C58.5083 15.3133 58.2683 16.06 58.2683 16.98V17.04H63.7483Z" fill="#2C2D2E"/>
<path d="M71.3197 23.2C70.6663 23.2 70.0597 23.0667 69.4997 22.8C68.9397 22.5333 68.493 22.1733 68.1597 21.72C67.8397 21.2533 67.6797 20.74 67.6797 20.18C67.6797 19.3 68.0397 18.58 68.7597 18.02C69.493 17.4467 70.4797 17.0733 71.7197 16.9L74.6997 16.48V15.9C74.6997 14.54 73.9197 13.86 72.3597 13.86C71.773 13.86 71.293 13.9867 70.9197 14.24C70.5463 14.48 70.2663 14.7667 70.0797 15.1C70.0397 15.22 69.9863 15.3067 69.9197 15.36C69.8663 15.4133 69.7863 15.44 69.6797 15.44H68.8197C68.6997 15.44 68.593 15.4 68.4997 15.32C68.4197 15.2267 68.3797 15.12 68.3797 15C68.393 14.68 68.5397 14.32 68.8197 13.92C69.113 13.5067 69.5597 13.1533 70.1597 12.86C70.7597 12.5533 71.4997 12.4 72.3797 12.4C73.873 12.4 74.9463 12.7533 75.5997 13.46C76.253 14.1533 76.5797 15.02 76.5797 16.06V22.54C76.5797 22.6733 76.533 22.7867 76.4397 22.88C76.3597 22.96 76.253 23 76.1197 23H75.1997C75.0663 23 74.953 22.96 74.8597 22.88C74.7797 22.7867 74.7397 22.6733 74.7397 22.54V21.68C74.4463 22.1067 74.0197 22.4667 73.4597 22.76C72.8997 23.0533 72.1863 23.2 71.3197 23.2ZM71.7397 21.7C72.6063 21.7 73.313 21.42 73.8597 20.86C74.4197 20.2867 74.6997 19.4667 74.6997 18.4V17.84L72.3797 18.18C71.433 18.3133 70.7197 18.54 70.2397 18.86C69.7597 19.1667 69.5197 19.56 69.5197 20.04C69.5197 20.5733 69.7397 20.9867 70.1797 21.28C70.6197 21.56 71.1397 21.7 71.7397 21.7Z" fill="#2C2D2E"/>
<path d="M84.0348 23.2C82.6082 23.2 81.4882 22.8 80.6748 22C79.8748 21.1867 79.4482 20.0533 79.3948 18.6L79.3748 17.8L79.3948 17C79.4482 15.5467 79.8748 14.42 80.6748 13.62C81.4882 12.8067 82.6082 12.4 84.0348 12.4C84.9948 12.4 85.8082 12.5733 86.4748 12.92C87.1415 13.2667 87.6348 13.6933 87.9548 14.2C88.2882 14.7067 88.4682 15.2133 88.4948 15.72C88.5082 15.8533 88.4682 15.96 88.3748 16.04C88.2815 16.12 88.1682 16.16 88.0348 16.16H87.0748C86.9415 16.16 86.8415 16.1333 86.7748 16.08C86.7082 16.0267 86.6415 15.92 86.5748 15.76C86.3482 15.12 86.0282 14.6667 85.6148 14.4C85.2015 14.12 84.6815 13.98 84.0548 13.98C83.2282 13.98 82.5682 14.24 82.0748 14.76C81.5948 15.2667 81.3348 16.0467 81.2948 17.1L81.2748 17.82L81.2948 18.5C81.3348 19.5667 81.5948 20.3533 82.0748 20.86C82.5548 21.3667 83.2148 21.62 84.0548 21.62C84.6815 21.62 85.2015 21.4867 85.6148 21.22C86.0282 20.94 86.3482 20.48 86.5748 19.84C86.6415 19.68 86.7082 19.5733 86.7748 19.52C86.8415 19.4533 86.9415 19.42 87.0748 19.42H88.0348C88.1682 19.42 88.2815 19.4667 88.3748 19.56C88.4682 19.64 88.5082 19.7467 88.4948 19.88C88.4682 20.3733 88.2882 20.88 87.9548 21.4C87.6348 21.9067 87.1415 22.3333 86.4748 22.68C85.8215 23.0267 85.0082 23.2 84.0348 23.2Z" fill="#2C2D2E"/>
<path d="M95.31 23C93.2033 23 92.15 21.8267 92.15 19.48V14.2H90.59C90.4567 14.2 90.3433 14.16 90.25 14.08C90.17 13.9867 90.13 13.8733 90.13 13.74V13.06C90.13 12.9267 90.17 12.82 90.25 12.74C90.3433 12.6467 90.4567 12.6 90.59 12.6H92.15V9.25999C92.15 9.12665 92.19 9.01999 92.27 8.93999C92.3633 8.84665 92.4767 8.79999 92.61 8.79999H93.55C93.6833 8.79999 93.79 8.84665 93.87 8.93999C93.9633 9.01999 94.01 9.12665 94.01 9.25999V12.6H96.49C96.6233 12.6 96.73 12.6467 96.81 12.74C96.9033 12.82 96.95 12.9267 96.95 13.06V13.74C96.95 13.8733 96.9033 13.9867 96.81 14.08C96.73 14.16 96.6233 14.2 96.49 14.2H94.01V19.34C94.01 20.0067 94.1233 20.5133 94.35 20.86C94.5767 21.1933 94.95 21.36 95.47 21.36H96.69C96.8233 21.36 96.93 21.4067 97.01 21.5C97.1033 21.58 97.15 21.6867 97.15 21.82V22.54C97.15 22.6733 97.1033 22.7867 97.01 22.88C96.93 22.96 96.8233 23 96.69 23H95.31Z" fill="#2C2D2E"/>
<path d="M103.502 23C101.396 23 100.342 21.8267 100.342 19.48V14.2H98.7825C98.6492 14.2 98.5358 14.16 98.4425 14.08C98.3625 13.9867 98.3225 13.8733 98.3225 13.74V13.06C98.3225 12.9267 98.3625 12.82 98.4425 12.74C98.5358 12.6467 98.6492 12.6 98.7825 12.6H100.342V9.25999C100.342 9.12665 100.382 9.01999 100.462 8.93999C100.556 8.84665 100.669 8.79999 100.802 8.79999H101.742C101.876 8.79999 101.982 8.84665 102.062 8.93999C102.156 9.01999 102.202 9.12665 102.202 9.25999V12.6H104.682C104.816 12.6 104.922 12.6467 105.002 12.74C105.096 12.82 105.142 12.9267 105.142 13.06V13.74C105.142 13.8733 105.096 13.9867 105.002 14.08C104.922 14.16 104.816 14.2 104.682 14.2H102.202V19.34C102.202 20.0067 102.316 20.5133 102.542 20.86C102.769 21.1933 103.142 21.36 103.662 21.36H104.882C105.016 21.36 105.122 21.4067 105.202 21.5C105.296 21.58 105.342 21.6867 105.342 21.82V22.54C105.342 22.6733 105.296 22.7867 105.202 22.88C105.122 22.96 105.016 23 104.882 23H103.502Z" fill="#2C2D2E"/>
<path d="M111.795 23.2C110.422 23.2 109.322 22.78 108.495 21.94C107.682 21.0867 107.235 19.9267 107.155 18.46L107.135 17.78L107.155 17.12C107.248 15.68 107.702 14.5333 108.515 13.68C109.342 12.8267 110.428 12.4 111.775 12.4C113.255 12.4 114.402 12.8733 115.215 13.82C116.028 14.7533 116.435 16.02 116.435 17.62V17.96C116.435 18.0933 116.388 18.2067 116.295 18.3C116.215 18.38 116.108 18.42 115.975 18.42H109.055V18.6C109.095 19.4667 109.355 20.2067 109.835 20.82C110.328 21.42 110.975 21.72 111.775 21.72C112.388 21.72 112.888 21.6 113.275 21.36C113.675 21.1067 113.968 20.8467 114.155 20.58C114.275 20.42 114.362 20.3267 114.415 20.3C114.482 20.26 114.595 20.24 114.755 20.24H115.735C115.855 20.24 115.955 20.2733 116.035 20.34C116.115 20.4067 116.155 20.5 116.155 20.62C116.155 20.9133 115.968 21.2667 115.595 21.68C115.235 22.0933 114.722 22.4533 114.055 22.76C113.402 23.0533 112.648 23.2 111.795 23.2ZM114.535 17.04V16.98C114.535 16.06 114.282 15.3133 113.775 14.74C113.282 14.1533 112.615 13.86 111.775 13.86C110.935 13.86 110.268 14.1533 109.775 14.74C109.295 15.3133 109.055 16.06 109.055 16.98V17.04H114.535Z" fill="#2C2D2E"/>
<path d="M119.666 23C119.533 23 119.42 22.96 119.326 22.88C119.246 22.7867 119.206 22.6733 119.206 22.54V13.08C119.206 12.9467 119.246 12.8333 119.326 12.74C119.42 12.6467 119.533 12.6 119.666 12.6H120.586C120.72 12.6 120.833 12.6467 120.926 12.74C121.02 12.8333 121.066 12.9467 121.066 13.08V13.96C121.613 13.0533 122.546 12.6 123.866 12.6H124.646C124.78 12.6 124.886 12.6467 124.966 12.74C125.06 12.82 125.106 12.9267 125.106 13.06V13.88C125.106 14.0133 125.06 14.12 124.966 14.2C124.886 14.28 124.78 14.32 124.646 14.32H123.446C122.726 14.32 122.16 14.5333 121.746 14.96C121.333 15.3733 121.126 15.94 121.126 16.66V22.54C121.126 22.6733 121.08 22.7867 120.986 22.88C120.893 22.96 120.78 23 120.646 23H119.666Z" fill="#2C2D2E"/>
</g>
<defs>
<clipPath id="clip0">
<rect width="125.11" height="32" fill="white"/>
</clipPath>
</defs>
</svg>
